ply
format ascii 1.0
comment Created by Blender 2.80 (sub 35) - www.blender.org, source file: 'anvil.blend'
element vertex 401
property float x
property float y
property float z
property float nx
property float ny
property float nz
property float s
property float t
element face 184
property list uchar uint vertex_indices
end_header
-0.120059 -0.120059 0.021239 -0.000000 -0.000000 -1.000000 0.000000 0.000000
-0.120059 0.120059 0.021239 -0.000000 -0.000000 -1.000000 0.000000 1.000000
0.120059 0.120059 0.021239 -0.000000 -0.000000 -1.000000 1.000000 1.000000
0.120059 -0.120059 0.021239 -0.000000 0.000000 -1.000000 1.000000 0.000000
0.119537 0.119537 0.031871 0.000000 0.000000 0.000000 1.000000 1.000000
-0.119537 0.119537 0.031871 0.000000 0.000000 0.000000 0.000000 1.000000
-0.119537 0.119537 0.031871 0.000000 0.000000 0.000000 0.000000 1.000000
0.119537 0.119537 0.031871 0.000000 0.000000 0.000000 1.000000 1.000000
0.120059 0.120059 0.021239 -0.000000 0.998795 0.049070 1.000000 1.000000
-0.120059 0.120059 0.021239 -0.000000 0.998795 0.049070 0.000000 1.000000
-0.119537 0.119537 0.031871 -0.000000 0.998795 0.049070 0.000000 1.000000
0.119537 0.119537 0.031871 -0.000000 0.998795 0.049070 1.000000 1.000000
-0.120059 -0.120059 0.021239 0.000000 -0.998795 0.049070 0.000000 0.000000
0.120059 -0.120059 0.021239 0.000000 -0.998795 0.049070 1.000000 0.000000
0.119537 -0.119537 0.031871 0.000000 -0.998795 0.049070 1.000000 0.000000
-0.119537 -0.119537 0.031871 0.000000 -0.998795 0.049070 0.000000 0.000000
0.120059 -0.120059 0.021239 0.998795 0.000000 0.049070 1.000000 0.000000
0.120059 0.120059 0.021239 0.998795 0.000000 0.049070 1.000000 1.000000
0.119537 0.119537 0.031871 0.998795 0.000000 0.049070 1.000000 1.000000
0.119537 -0.119537 0.031871 0.998795 -0.000000 0.049070 1.000000 0.000000
-0.120059 0.120059 0.021239 -0.998795 0.000000 0.049070 0.000000 1.000000
-0.120059 -0.120059 0.021239 -0.998795 0.000000 0.049070 0.000000 0.000000
-0.119537 -0.119537 0.031871 -0.998795 0.000000 0.049070 0.000000 0.000000
-0.119537 0.119537 0.031871 -0.998795 0.000000 0.049070 0.000000 1.000000
0.068349 -0.056628 0.159024 0.728585 0.000000 -0.684955 1.000000 0.000000
0.068349 0.056628 0.159024 0.728585 0.000000 -0.684955 1.000000 1.000000
0.083895 0.056677 0.175560 0.728585 0.000000 -0.684955 1.000000 1.000000
0.083895 -0.056676 0.175560 0.728585 0.000000 -0.684955 1.000000 0.000000
-0.119537 -0.119537 0.031871 0.000000 0.000000 0.000000 0.000000 0.000000
0.119537 -0.119537 0.031871 0.000000 0.000000 0.000000 1.000000 0.000000
0.119537 -0.119537 0.031871 0.000000 0.000000 0.000000 1.000000 0.000000
-0.119537 -0.119537 0.031871 0.000000 0.000000 0.000000 0.000000 0.000000
-0.119776 -0.056623 0.292217 0.000000 0.000000 1.000000 0.000000 0.000000
0.083841 -0.056623 0.292217 0.000000 0.000000 1.000000 1.000000 0.000000
0.083841 0.056623 0.292217 0.000000 0.000000 1.000000 1.000000 1.000000
-0.119776 0.056623 0.292217 0.000000 0.000000 1.000000 0.000000 1.000000
-0.083181 0.056628 0.159024 -0.396048 0.000000 -0.918230 0.000000 1.000000
-0.083181 -0.056628 0.159024 -0.396048 0.000000 -0.918230 0.000000 0.000000
-0.119776 -0.056623 0.174808 -0.396048 0.000000 -0.918230 0.000000 0.000000
-0.119776 0.056623 0.174808 -0.396048 -0.000000 -0.918230 0.000000 1.000000
0.068349 0.056628 0.159024 -0.000000 1.000000 0.000289 1.000000 1.000000
-0.083181 0.056628 0.159024 -0.000000 1.000000 0.000289 0.000000 1.000000
-0.119776 0.056623 0.174808 -0.000000 1.000000 0.000289 0.000000 1.000000
0.068349 0.056628 0.159024 -0.000252 0.999996 -0.002710 1.000000 1.000000
-0.119776 0.056623 0.174808 -0.000252 0.999996 -0.002710 0.000000 1.000000
0.083895 0.056677 0.175560 -0.000252 0.999996 -0.002710 1.000000 1.000000
-0.083181 -0.056628 0.159024 -0.000000 -0.999996 -0.002947 0.000000 0.000000
0.068349 -0.056628 0.159024 -0.000000 -0.999996 -0.002947 1.000000 0.000000
0.083895 -0.056676 0.175560 -0.000000 -0.999996 -0.002947 1.000000 0.000000
-0.083181 -0.056628 0.159024 -0.000261 -1.000000 -0.000314 0.000000 0.000000
0.083895 -0.056676 0.175560 -0.000261 -1.000000 -0.000314 1.000000 0.000000
-0.119776 -0.056623 0.174808 -0.000261 -1.000000 -0.000314 0.000000 0.000000
-0.119537 -0.119537 0.031871 0.000000 -0.568416 0.822742 0.000000 0.000000
0.119537 -0.119537 0.031871 0.000000 -0.568416 0.822742 1.000000 0.000000
0.105421 -0.105421 0.041623 0.000000 -0.568416 0.822742 1.000000 0.000000
-0.119537 -0.119537 0.031871 0.000000 -0.568415 0.822742 0.000000 0.000000
0.105421 -0.105421 0.041623 0.000000 -0.568415 0.822742 1.000000 0.000000
-0.105421 -0.105421 0.041623 0.000000 -0.568415 0.822742 0.000000 0.000000
-0.105421 -0.105421 0.041623 0.000000 -0.649807 0.760099 0.000000 0.000000
0.105421 -0.105421 0.041623 0.000000 -0.649807 0.760099 1.000000 0.000000
0.094014 -0.094014 0.051375 0.000000 -0.649807 0.760099 1.000000 0.000000
-0.105421 -0.105421 0.041623 0.000000 -0.649808 0.760099 0.000000 0.000000
0.094014 -0.094014 0.051375 0.000000 -0.649808 0.760099 1.000000 0.000000
-0.094014 -0.094014 0.051375 0.000000 -0.649808 0.760099 0.000000 0.000000
-0.094014 -0.094014 0.051375 0.000000 -0.725326 0.688406 0.000000 0.000000
0.094014 -0.094014 0.051375 0.000000 -0.725326 0.688406 1.000000 0.000000
0.084758 -0.084758 0.061127 0.000000 -0.725326 0.688406 1.000000 0.000000
-0.094014 -0.094014 0.051375 0.000000 -0.725325 0.688406 0.000000 0.000000
0.084758 -0.084758 0.061127 0.000000 -0.725325 0.688406 1.000000 0.000000
-0.084758 -0.084758 0.061127 0.000000 -0.725325 0.688406 0.000000 0.000000
-0.084758 -0.084758 0.061127 0.000000 -0.754871 0.655873 0.000000 0.000000
0.084758 -0.084758 0.061127 0.000000 -0.754871 0.655873 1.000000 0.000000
0.076285 -0.076285 0.070880 0.000000 -0.754871 0.655873 1.000000 0.000000
-0.076285 -0.076285 0.070880 0.000000 -0.754871 0.655873 0.000000 0.000000
-0.076285 -0.076285 0.070880 0.000000 -0.788505 0.615029 0.000000 0.000000
0.076285 -0.076285 0.070880 0.000000 -0.788505 0.615029 1.000000 0.000000
0.068678 -0.068678 0.080632 0.000000 -0.788505 0.615029 1.000000 0.000000
-0.068678 -0.068678 0.080632 0.000000 -0.788505 0.615029 0.000000 0.000000
-0.068678 -0.068678 0.080632 0.000000 -0.886331 0.463052 0.000000 0.000000
0.068678 -0.068678 0.080632 0.000000 -0.886331 0.463052 1.000000 0.000000
0.063556 -0.063556 0.090435 0.000000 -0.886331 0.463052 1.000000 0.000000
-0.068678 -0.068678 0.080632 -0.000086 -0.885855 0.463961 0.000000 0.000000
0.063556 -0.063556 0.090435 -0.000086 -0.885855 0.463961 1.000000 0.000000
-0.063556 -0.063556 0.090412 -0.000086 -0.885855 0.463961 0.000000 0.000000
-0.063556 -0.063556 0.090412 -0.000069 -0.926749 0.375680 0.000000 0.000000
0.063556 -0.063556 0.090435 -0.000069 -0.926749 0.375680 1.000000 0.000000
0.059545 -0.059545 0.100330 -0.000069 -0.926749 0.375680 1.000000 0.000000
-0.063556 -0.063556 0.090412 -0.000229 -0.926057 0.377383 0.000000 0.000000
0.059545 -0.059545 0.100330 -0.000229 -0.926057 0.377383 1.000000 0.000000
-0.059545 -0.059545 0.100257 -0.000229 -0.926057 0.377383 0.000000 0.000000
-0.059545 -0.059545 0.100257 -0.000132 -0.975991 0.217810 0.000000 0.000000
0.059545 -0.059545 0.100330 -0.000132 -0.975991 0.217810 1.000000 0.000000
0.057318 -0.057318 0.110307 -0.000132 -0.975991 0.217810 1.000000 0.000000
-0.059545 -0.059545 0.100257 -0.000274 -0.975639 0.219381 0.000000 0.000000
0.057318 -0.057318 0.110307 -0.000274 -0.975639 0.219381 1.000000 0.000000
-0.057318 -0.057318 0.110163 -0.000274 -0.975639 0.219381 0.000000 0.000000
-0.057318 -0.057318 0.110163 -0.000086 -0.997653 0.068474 0.000000 0.000000
0.057318 -0.057318 0.110307 -0.000086 -0.997653 0.068474 1.000000 0.000000
0.056628 -0.056628 0.120369 -0.000086 -0.997653 0.068474 1.000000 0.000000
-0.057318 -0.057318 0.110163 -0.000141 -0.997610 0.069091 0.000000 0.000000
0.056628 -0.056628 0.120369 -0.000141 -0.997610 0.069091 1.000000 0.000000
-0.056628 -0.056628 0.120132 -0.000141 -0.997610 0.069091 0.000000 0.000000
-0.056628 -0.056628 0.120132 0.000004 -1.000000 -0.000006 0.000000 0.000000
0.056628 -0.056628 0.120369 0.000004 -1.000000 -0.000006 1.000000 0.000000
0.057448 -0.056628 0.130529 0.000004 -1.000000 -0.000006 1.000000 0.000000
-0.056628 -0.056628 0.120132 0.000003 -1.000000 0.000000 0.000000 0.000000
0.057448 -0.056628 0.130529 0.000003 -1.000000 0.000000 1.000000 0.000000
-0.057448 -0.056628 0.130169 0.000003 -1.000000 0.000000 0.000000 0.000000
-0.057448 -0.056628 0.130169 0.000003 -1.000000 0.000001 0.000000 0.000000
0.057448 -0.056628 0.130529 0.000003 -1.000000 0.000001 1.000000 0.000000
0.058454 -0.056628 0.140765 0.000003 -1.000000 0.000001 1.000000 0.000000
-0.057448 -0.056628 0.130169 -0.000000 -1.000000 0.000039 0.000000 0.000000
0.058454 -0.056628 0.140765 -0.000000 -1.000000 0.000039 1.000000 0.000000
-0.058454 -0.056628 0.140227 -0.000000 -1.000000 0.000039 0.000000 0.000000
-0.058454 -0.056628 0.140227 0.000000 -1.000000 -0.000000 0.000000 0.000000
0.058454 -0.056628 0.140765 0.000000 -1.000000 -0.000000 1.000000 0.000000
0.068349 -0.056628 0.159024 0.000000 -1.000000 -0.000000 1.000000 0.000000
-0.083181 -0.056628 0.159024 0.000000 -1.000000 0.000000 0.000000 0.000000
0.119537 0.119537 0.031871 -0.000000 0.568416 0.822742 1.000000 1.000000
-0.119537 0.119537 0.031871 -0.000000 0.568416 0.822742 0.000000 1.000000
-0.105421 0.105421 0.041623 -0.000000 0.568416 0.822742 0.000000 1.000000
0.119537 0.119537 0.031871 0.000000 0.568415 0.822742 1.000000 1.000000
-0.105421 0.105421 0.041623 0.000000 0.568415 0.822742 0.000000 1.000000
0.105421 0.105421 0.041623 0.000000 0.568415 0.822742 1.000000 1.000000
0.105421 0.105421 0.041623 -0.000000 0.649807 0.760099 1.000000 1.000000
-0.105421 0.105421 0.041623 -0.000000 0.649807 0.760099 0.000000 1.000000
-0.094014 0.094014 0.051375 -0.000000 0.649807 0.760099 0.000000 1.000000
0.105421 0.105421 0.041623 -0.000000 0.649808 0.760099 1.000000 1.000000
-0.094014 0.094014 0.051375 -0.000000 0.649808 0.760099 0.000000 1.000000
0.094014 0.094014 0.051375 -0.000000 0.649808 0.760099 1.000000 1.000000
0.094014 0.094014 0.051375 -0.000000 0.725326 0.688406 1.000000 1.000000
-0.094014 0.094014 0.051375 -0.000000 0.725326 0.688406 0.000000 1.000000
-0.084758 0.084758 0.061127 -0.000000 0.725326 0.688406 0.000000 1.000000
0.094014 0.094014 0.051375 -0.000000 0.725325 0.688406 1.000000 1.000000
-0.084758 0.084758 0.061127 -0.000000 0.725325 0.688406 0.000000 1.000000
0.084758 0.084758 0.061127 -0.000000 0.725325 0.688406 1.000000 1.000000
0.084758 0.084758 0.061127 -0.000000 0.754871 0.655873 1.000000 1.000000
-0.084758 0.084758 0.061127 -0.000000 0.754871 0.655873 0.000000 1.000000
-0.076285 0.076285 0.070880 -0.000000 0.754871 0.655873 0.000000 1.000000
0.076285 0.076285 0.070880 -0.000000 0.754871 0.655873 1.000000 1.000000
0.076285 0.076285 0.070880 -0.000000 0.788505 0.615029 1.000000 1.000000
-0.076285 0.076285 0.070880 -0.000000 0.788505 0.615029 0.000000 1.000000
-0.068678 0.068678 0.080632 -0.000000 0.788505 0.615029 0.000000 1.000000
0.068678 0.068678 0.080632 -0.000000 0.788505 0.615029 1.000000 1.000000
0.068678 0.068678 0.080632 -0.000000 0.885874 0.463926 1.000000 1.000000
-0.068678 0.068678 0.080632 -0.000000 0.885874 0.463926 0.000000 1.000000
-0.063556 0.063556 0.090412 -0.000000 0.885874 0.463926 0.000000 1.000000
0.068678 0.068678 0.080632 -0.000086 0.886349 0.463017 1.000000 1.000000
-0.063556 0.063556 0.090412 -0.000086 0.886349 0.463017 0.000000 1.000000
0.063556 0.063556 0.090435 -0.000086 0.886349 0.463017 1.000000 1.000000
0.063556 0.063556 0.090435 -0.000070 0.926080 0.377327 1.000000 1.000000
-0.063556 0.063556 0.090412 -0.000070 0.926080 0.377327 0.000000 1.000000
-0.059545 0.059545 0.100257 -0.000070 0.926080 0.377327 0.000000 1.000000
0.063556 0.063556 0.090435 -0.000228 0.926772 0.375625 1.000000 1.000000
-0.059545 0.059545 0.100257 -0.000228 0.926772 0.375625 0.000000 1.000000
0.059545 0.059545 0.100330 -0.000228 0.926772 0.375625 1.000000 1.000000
0.059545 0.059545 0.100330 -0.000133 0.975646 0.219350 1.000000 1.000000
-0.059545 0.059545 0.100257 -0.000133 0.975646 0.219350 0.000000 1.000000
-0.057318 0.057318 0.110163 -0.000133 0.975646 0.219350 0.000000 1.000000
0.059545 0.059545 0.100330 -0.000272 0.975998 0.217781 1.000000 1.000000
-0.057318 0.057318 0.110163 -0.000272 0.975998 0.217781 0.000000 1.000000
0.057318 0.057318 0.110307 -0.000272 0.975998 0.217781 1.000000 1.000000
0.057318 0.057318 0.110307 -0.000086 0.997608 0.069131 1.000000 1.000000
-0.057318 0.057318 0.110163 -0.000086 0.997608 0.069131 0.000000 1.000000
-0.056628 0.056628 0.120132 -0.000086 0.997608 0.069131 0.000000 1.000000
0.057318 0.057318 0.110307 -0.000144 0.997653 0.068471 1.000000 1.000000
-0.056628 0.056628 0.120132 -0.000144 0.997653 0.068471 0.000000 1.000000
0.056628 0.056628 0.120369 -0.000144 0.997653 0.068471 1.000000 1.000000
0.056628 0.056628 0.120369 0.000000 1.000000 -0.000044 1.000000 1.000000
-0.056628 0.056628 0.120132 0.000000 1.000000 -0.000044 0.000000 1.000000
-0.057448 0.056628 0.130169 0.000000 1.000000 -0.000044 0.000000 1.000000
0.056628 0.056628 0.120369 0.000000 1.000000 -0.000045 1.000000 1.000000
-0.057448 0.056628 0.130169 0.000000 1.000000 -0.000045 0.000000 1.000000
0.057448 0.056628 0.130529 0.000000 1.000000 -0.000045 1.000000 1.000000
0.057448 0.056628 0.130529 -0.000000 1.000000 0.000000 1.000000 1.000000
-0.057448 0.056628 0.130169 -0.000000 1.000000 0.000000 0.000000 1.000000
-0.058454 0.056628 0.140227 -0.000000 1.000000 0.000000 0.000000 1.000000
0.058454 0.056628 0.140765 -0.000000 1.000000 -0.000000 1.000000 1.000000
-0.083181 0.056628 0.159024 -0.000000 1.000000 -0.000000 0.000000 1.000000
0.068349 0.056628 0.159024 0.000000 1.000000 0.000000 1.000000 1.000000
-0.119537 0.119537 0.031871 -0.568415 0.000000 0.822742 0.000000 1.000000
-0.119537 -0.119537 0.031871 -0.568415 0.000000 0.822742 0.000000 0.000000
-0.105421 -0.105421 0.041623 -0.568415 0.000000 0.822742 0.000000 0.000000
-0.119537 0.119537 0.031871 -0.568416 0.000000 0.822742 0.000000 1.000000
-0.105421 -0.105421 0.041623 -0.568416 0.000000 0.822742 0.000000 0.000000
-0.105421 0.105421 0.041623 -0.568416 0.000000 0.822742 0.000000 1.000000
-0.105421 0.105421 0.041623 -0.649808 0.000000 0.760099 0.000000 1.000000
-0.105421 -0.105421 0.041623 -0.649808 0.000000 0.760099 0.000000 0.000000
-0.094014 -0.094014 0.051375 -0.649808 0.000000 0.760099 0.000000 0.000000
-0.105421 0.105421 0.041623 -0.649807 0.000000 0.760099 0.000000 1.000000
-0.094014 -0.094014 0.051375 -0.649807 0.000000 0.760099 0.000000 0.000000
-0.094014 0.094014 0.051375 -0.649807 0.000000 0.760099 0.000000 1.000000
-0.094014 0.094014 0.051375 -0.725325 0.000000 0.688406 0.000000 1.000000
-0.094014 -0.094014 0.051375 -0.725325 0.000000 0.688406 0.000000 0.000000
-0.084758 -0.084758 0.061127 -0.725325 0.000000 0.688406 0.000000 0.000000
-0.094014 0.094014 0.051375 -0.725326 0.000000 0.688406 0.000000 1.000000
-0.084758 -0.084758 0.061127 -0.725326 0.000000 0.688406 0.000000 0.000000
-0.084758 0.084758 0.061127 -0.725326 0.000000 0.688406 0.000000 1.000000
-0.084758 0.084758 0.061127 -0.754871 0.000000 0.655873 0.000000 1.000000
-0.084758 -0.084758 0.061127 -0.754871 0.000000 0.655873 0.000000 0.000000
-0.076285 -0.076285 0.070880 -0.754871 0.000000 0.655873 0.000000 0.000000
-0.076285 0.076285 0.070880 -0.754871 0.000000 0.655873 0.000000 1.000000
-0.076285 0.076285 0.070880 -0.788505 0.000000 0.615029 0.000000 1.000000
-0.076285 -0.076285 0.070880 -0.788505 0.000000 0.615029 0.000000 0.000000
-0.068678 -0.068678 0.080632 -0.788505 0.000000 0.615029 0.000000 0.000000
-0.068678 0.068678 0.080632 -0.788505 0.000000 0.615029 0.000000 1.000000
-0.068678 0.068678 0.080632 -0.885874 0.000000 0.463926 0.000000 1.000000
-0.068678 -0.068678 0.080632 -0.885874 0.000000 0.463926 0.000000 0.000000
-0.063556 -0.063556 0.090412 -0.885874 0.000000 0.463926 0.000000 0.000000
-0.063556 0.063556 0.090412 -0.885874 0.000000 0.463926 0.000000 1.000000
-0.063556 0.063556 0.090412 -0.926090 0.000000 0.377303 0.000000 1.000000
-0.063556 -0.063556 0.090412 -0.926090 0.000000 0.377303 0.000000 0.000000
-0.059545 -0.059545 0.100257 -0.926090 0.000000 0.377303 0.000000 0.000000
-0.059545 0.059545 0.100257 -0.926090 0.000000 0.377303 0.000000 1.000000
-0.059545 0.059545 0.100257 -0.975653 0.000000 0.219322 0.000000 1.000000
-0.059545 -0.059545 0.100257 -0.975653 0.000000 0.219322 0.000000 0.000000
-0.057318 -0.057318 0.110163 -0.975653 0.000000 0.219322 0.000000 0.000000
-0.059545 0.059545 0.100257 -0.975653 0.000000 0.219321 0.000000 1.000000
-0.057318 -0.057318 0.110163 -0.975653 0.000000 0.219321 0.000000 0.000000
-0.057318 0.057318 0.110163 -0.975653 0.000000 0.219321 0.000000 1.000000
-0.057318 0.057318 0.110163 -0.997608 0.000000 0.069126 0.000000 1.000000
-0.057318 -0.057318 0.110163 -0.997608 0.000000 0.069126 0.000000 0.000000
-0.056628 -0.056628 0.120132 -0.997608 0.000000 0.069126 0.000000 0.000000
-0.057318 0.057318 0.110163 -0.997608 -0.000000 0.069125 0.000000 1.000000
-0.056628 -0.056628 0.120132 -0.997608 -0.000000 0.069125 0.000000 0.000000
-0.056628 0.056628 0.120132 -0.997608 -0.000000 0.069125 0.000000 1.000000
-0.056628 0.056628 0.120132 -0.996673 -0.000000 -0.081501 0.000000 1.000000
-0.056628 -0.056628 0.120132 -0.996673 -0.000000 -0.081501 0.000000 0.000000
-0.057448 -0.056628 0.130169 -0.996673 -0.000000 -0.081501 0.000000 0.000000
-0.056628 0.056628 0.120132 -0.996673 -0.000000 -0.081500 0.000000 1.000000
-0.057448 -0.056628 0.130169 -0.996673 -0.000000 -0.081500 0.000000 0.000000
-0.057448 0.056628 0.130169 -0.996673 -0.000000 -0.081500 0.000000 1.000000
-0.057448 0.056628 0.130169 -0.995037 -0.000000 -0.099502 0.000000 1.000000
-0.057448 -0.056628 0.130169 -0.995037 -0.000000 -0.099502 0.000000 0.000000
-0.058454 -0.056628 0.140227 -0.995037 -0.000000 -0.099502 0.000000 0.000000
-0.057448 0.056628 0.130169 -0.995037 0.000000 -0.099501 0.000000 1.000000
-0.058454 -0.056628 0.140227 -0.995037 0.000000 -0.099501 0.000000 0.000000
-0.058454 0.056628 0.140227 -0.995037 0.000000 -0.099501 0.000000 1.000000
-0.058454 0.056628 0.140227 -0.605166 -0.000000 -0.796100 0.000000 1.000000
-0.058454 -0.056628 0.140227 -0.605166 -0.000000 -0.796100 0.000000 0.000000
-0.083181 -0.056628 0.159024 -0.605166 -0.000000 -0.796100 0.000000 0.000000
-0.083181 0.056628 0.159024 -0.605166 -0.000000 -0.796100 0.000000 1.000000
0.119537 -0.119537 0.031871 0.568415 -0.000000 0.822742 1.000000 0.000000
0.119537 0.119537 0.031871 0.568415 -0.000000 0.822742 1.000000 1.000000
0.105421 0.105421 0.041623 0.568415 -0.000000 0.822742 1.000000 1.000000
0.119537 -0.119537 0.031871 0.568416 -0.000000 0.822742 1.000000 0.000000
0.105421 0.105421 0.041623 0.568416 -0.000000 0.822742 1.000000 1.000000
0.105421 -0.105421 0.041623 0.568416 -0.000000 0.822742 1.000000 0.000000
0.105421 -0.105421 0.041623 0.649808 0.000000 0.760099 1.000000 0.000000
0.105421 0.105421 0.041623 0.649808 0.000000 0.760099 1.000000 1.000000
0.094014 0.094014 0.051375 0.649808 0.000000 0.760099 1.000000 1.000000
0.105421 -0.105421 0.041623 0.649807 -0.000000 0.760099 1.000000 0.000000
0.094014 0.094014 0.051375 0.649807 -0.000000 0.760099 1.000000 1.000000
0.094014 -0.094014 0.051375 0.649807 -0.000000 0.760099 1.000000 0.000000
0.094014 -0.094014 0.051375 0.725325 -0.000000 0.688406 1.000000 0.000000
0.094014 0.094014 0.051375 0.725325 -0.000000 0.688406 1.000000 1.000000
0.084758 0.084758 0.061127 0.725325 -0.000000 0.688406 1.000000 1.000000
0.094014 -0.094014 0.051375 0.725326 -0.000000 0.688406 1.000000 0.000000
0.084758 0.084758 0.061127 0.725326 -0.000000 0.688406 1.000000 1.000000
0.084758 -0.084758 0.061127 0.725326 -0.000000 0.688406 1.000000 0.000000
0.084758 -0.084758 0.061127 0.754871 -0.000000 0.655873 1.000000 0.000000
0.084758 0.084758 0.061127 0.754871 -0.000000 0.655873 1.000000 1.000000
0.076285 0.076285 0.070880 0.754871 -0.000000 0.655873 1.000000 1.000000
0.076285 -0.076285 0.070880 0.754871 -0.000000 0.655873 1.000000 0.000000
0.076285 -0.076285 0.070880 0.788505 -0.000000 0.615029 1.000000 0.000000
0.076285 0.076285 0.070880 0.788505 -0.000000 0.615029 1.000000 1.000000
0.068678 0.068678 0.080632 0.788505 -0.000000 0.615029 1.000000 1.000000
0.068678 -0.068678 0.080632 0.788505 -0.000000 0.615029 1.000000 0.000000
0.068678 -0.068678 0.080632 0.886331 -0.000000 0.463052 1.000000 0.000000
0.068678 0.068678 0.080632 0.886331 -0.000000 0.463052 1.000000 1.000000
0.063556 0.063556 0.090435 0.886331 -0.000000 0.463052 1.000000 1.000000
0.068678 -0.068678 0.080632 0.886331 -0.000000 0.463053 1.000000 0.000000
0.063556 0.063556 0.090435 0.886331 -0.000000 0.463053 1.000000 1.000000
0.063556 -0.063556 0.090435 0.886331 -0.000000 0.463053 1.000000 0.000000
0.063556 -0.063556 0.090435 0.926740 -0.000000 0.375704 1.000000 0.000000
0.063556 0.063556 0.090435 0.926740 -0.000000 0.375704 1.000000 1.000000
0.059545 0.059545 0.100330 0.926740 -0.000000 0.375704 1.000000 1.000000
0.059545 -0.059545 0.100330 0.926740 -0.000000 0.375704 1.000000 0.000000
0.059545 -0.059545 0.100330 0.975985 -0.000000 0.217839 1.000000 0.000000
0.059545 0.059545 0.100330 0.975985 -0.000000 0.217839 1.000000 1.000000
0.057318 0.057318 0.110307 0.975985 -0.000000 0.217839 1.000000 1.000000
0.057318 -0.057318 0.110307 0.975985 -0.000000 0.217839 1.000000 0.000000
0.057318 -0.057318 0.110307 0.997653 0.000000 0.068481 1.000000 0.000000
0.057318 0.057318 0.110307 0.997653 0.000000 0.068481 1.000000 1.000000
0.056628 0.056628 0.120369 0.997653 0.000000 0.068481 1.000000 1.000000
0.057318 -0.057318 0.110307 0.997652 0.000000 0.068480 1.000000 0.000000
0.056628 0.056628 0.120369 0.997652 0.000000 0.068480 1.000000 1.000000
0.056628 -0.056628 0.120369 0.997652 0.000000 0.068480 1.000000 0.000000
0.056628 -0.056628 0.120369 0.996753 0.000000 -0.080523 1.000000 0.000000
0.056628 0.056628 0.120369 0.996753 0.000000 -0.080523 1.000000 1.000000
0.057448 0.056628 0.130529 0.996753 0.000000 -0.080523 1.000000 1.000000
0.056628 -0.056628 0.120369 0.996753 0.000000 -0.080522 1.000000 0.000000
0.057448 0.056628 0.130529 0.996753 0.000000 -0.080522 1.000000 1.000000
0.057448 -0.056628 0.130529 0.996753 0.000000 -0.080522 1.000000 0.000000
0.057448 -0.056628 0.130529 0.995207 0.000000 -0.097793 1.000000 0.000000
0.057448 0.056628 0.130529 0.995207 0.000000 -0.097793 1.000000 1.000000
0.058454 0.056628 0.140765 0.995207 0.000000 -0.097793 1.000000 1.000000
0.058454 -0.056628 0.140765 0.995207 -0.000000 -0.097793 1.000000 0.000000
0.058454 -0.056628 0.140765 0.879204 0.000000 -0.476445 1.000000 0.000000
0.058454 0.056628 0.140765 0.879204 0.000000 -0.476445 1.000000 1.000000
0.068349 0.056628 0.159024 0.879204 0.000000 -0.476445 1.000000 1.000000
0.068349 -0.056628 0.159024 0.879204 0.000000 -0.476445 1.000000 0.000000
0.083895 -0.056676 0.175560 0.518994 0.000000 -0.854778 1.000000 0.000000
0.083895 0.056677 0.175560 0.518994 0.000000 -0.854778 1.000000 1.000000
0.117651 0.056623 0.196056 0.518994 0.000000 -0.854778 0.000000 0.000000
0.117651 -0.056623 0.196056 0.518994 0.000000 -0.854778 0.000000 0.000000
-0.119776 0.056623 0.174808 -1.000000 0.000000 0.000000 0.000000 1.000000
-0.119776 -0.056623 0.174808 -1.000000 0.000000 0.000000 0.000000 0.000000
-0.119776 -0.056623 0.292217 -1.000000 0.000000 0.000000 0.000000 0.000000
-0.119776 0.056623 0.292217 -1.000000 -0.000000 -0.000000 0.000000 1.000000
-0.119776 0.056623 0.174808 0.000000 0.000000 0.000000 0.000000 0.000000
-0.119776 -0.056623 0.174808 0.000000 0.000000 0.000000 0.000000 0.000000
-0.119776 -0.056623 0.174808 0.000000 0.000000 0.000000 0.000000 0.000000
-0.119776 0.056623 0.174808 0.000000 0.000000 0.000000 0.000000 0.000000
0.083895 0.056677 0.175560 -0.000262 1.000000 0.000000 1.000000 1.000000
-0.119776 0.056623 0.174808 -0.000262 1.000000 0.000000 0.000000 1.000000
-0.119776 0.056623 0.292217 -0.000262 1.000000 0.000000 0.000000 1.000000
0.083895 0.056677 0.175560 0.000000 1.000000 0.000457 1.000000 1.000000
-0.119776 0.056623 0.292217 0.000000 1.000000 0.000457 0.000000 1.000000
0.083841 0.056623 0.292217 0.000000 1.000000 0.000457 1.000000 1.000000
-0.119776 -0.056623 0.174808 -0.000263 -1.000000 0.000457 0.000000 0.000000
0.083895 -0.056676 0.175560 -0.000263 -1.000000 0.000457 1.000000 0.000000
0.083841 -0.056623 0.292217 -0.000263 -1.000000 0.000457 1.000000 0.000000
-0.119776 -0.056623 0.174808 -0.000000 -1.000000 0.000000 0.000000 0.000000
0.083841 -0.056623 0.292217 -0.000000 -1.000000 0.000000 1.000000 0.000000
-0.119776 -0.056623 0.292217 -0.000000 -1.000000 0.000000 0.000000 0.000000
0.083889 0.056671 0.175843 -0.000234 1.000000 0.000000 0.000000 0.000000
-0.119776 0.056623 0.174808 -0.000234 1.000000 0.000000 0.000000 0.000000
-0.119776 0.056623 0.292217 -0.000234 1.000000 0.000000 0.000000 0.000000
0.083889 0.056671 0.175843 0.000000 1.000000 0.000410 0.000000 0.000000
-0.119776 0.056623 0.292217 0.000000 1.000000 0.000410 0.000000 0.000000
0.083841 0.056623 0.292217 0.000000 1.000000 0.000410 0.000000 0.000000
-0.119776 -0.056623 0.174808 -0.000236 -1.000000 0.000409 0.000000 0.000000
0.083889 -0.056671 0.175843 -0.000236 -1.000000 0.000409 0.000000 0.000000
0.083841 -0.056623 0.292217 -0.000236 -1.000000 0.000409 0.000000 0.000000
-0.119776 -0.056623 0.174808 -0.000000 -1.000000 0.000000 0.000000 0.000000
0.083841 -0.056623 0.292217 -0.000000 -1.000000 0.000000 0.000000 0.000000
-0.119776 -0.056623 0.292217 -0.000000 -1.000000 0.000000 0.000000 0.000000
-0.119776 -0.056623 0.292217 0.000000 0.000000 0.000000 0.000000 0.000000
-0.119776 -0.056623 0.292217 0.000000 0.000000 0.000000 0.000000 0.000000
-0.119776 0.056623 0.292217 0.000000 0.000000 0.000000 0.000000 1.000000
-0.119776 0.056623 0.292217 0.000000 0.000000 0.000000 0.000000 1.000000
-0.119776 0.056623 0.292217 0.000000 0.000000 0.000000 0.000000 0.000000
-0.119776 0.056623 0.292217 0.000000 0.000000 0.000000 0.000000 0.000000
0.252887 0.056623 0.242890 1.000000 -0.000000 0.000000 0.000000 0.000000
0.252887 0.056623 0.292217 1.000000 -0.000000 0.000000 0.000000 0.000000
0.252887 -0.056623 0.292217 1.000000 -0.000000 0.000000 1.000000 0.000000
0.252887 -0.056623 0.242890 1.000000 -0.000000 0.000000 0.000000 0.000000
0.117651 -0.056623 0.196056 0.459902 0.000000 -0.887970 0.000000 0.000000
0.117651 0.056623 0.196056 0.459902 0.000000 -0.887970 0.000000 0.000000
0.151460 0.056623 0.213566 0.459902 0.000000 -0.887970 0.000000 0.000000
0.151460 -0.056623 0.213566 0.459902 -0.000000 -0.887970 0.000000 0.000000
0.151460 -0.056623 0.213566 0.375184 -0.000000 -0.926950 0.000000 0.000000
0.151460 0.056623 0.213566 0.375184 -0.000000 -0.926950 0.000000 0.000000
0.185269 0.056623 0.227250 0.375184 -0.000000 -0.926950 0.000000 0.000000
0.185269 -0.056623 0.227250 0.375184 0.000000 -0.926950 0.000000 0.000000
0.185269 -0.056623 0.227250 0.277734 0.000000 -0.960658 0.000000 0.000000
0.185269 0.056623 0.227250 0.277734 0.000000 -0.960658 0.000000 0.000000
0.219078 0.056623 0.237025 0.277734 0.000000 -0.960658 0.000000 0.000000
0.219078 -0.056623 0.237025 0.277734 0.000000 -0.960658 0.000000 0.000000
0.219078 -0.056623 0.237025 0.170912 0.000000 -0.985286 0.000000 0.000000
0.219078 0.056623 0.237025 0.170912 0.000000 -0.985286 0.000000 0.000000
0.252887 0.056623 0.242890 0.170912 0.000000 -0.985286 0.000000 0.000000
0.252887 -0.056623 0.242890 0.170912 0.000000 -0.985286 0.000000 0.000000
0.083841 -0.056623 0.292217 0.001166 -0.999999 0.000410 0.000000 0.000000
0.083889 -0.056671 0.175843 0.001166 -0.999999 0.000410 0.000000 0.000000
0.117651 -0.056623 0.196056 0.001166 -0.999999 0.000410 0.000000 0.000000
0.117651 -0.056623 0.196056 -0.000000 -1.000000 -0.000000 0.000000 0.000000
0.117651 -0.056623 0.292217 -0.000000 -1.000000 -0.000000 0.000000 0.000000
0.151460 -0.056623 0.213566 -0.000000 -1.000000 0.000000 0.000000 0.000000
0.151460 -0.056623 0.292217 -0.000000 -1.000000 -0.000000 0.000000 0.000000
0.185269 -0.056623 0.227250 -0.000000 -1.000000 0.000000 0.000000 0.000000
0.185269 -0.056623 0.292217 -0.000000 -1.000000 -0.000000 0.000000 0.000000
0.219078 -0.056623 0.237025 -0.000000 -1.000000 0.000000 0.000000 0.000000
0.219078 -0.056623 0.292217 -0.000000 -1.000000 -0.000000 0.000000 0.000000
0.252887 -0.056623 0.242890 0.000000 -1.000000 0.000000 0.000000 0.000000
0.252887 -0.056623 0.292217 0.000000 -1.000000 0.000000 0.000000 0.000000
0.117651 -0.056623 0.292217 0.000000 0.000000 1.000000 1.000000 0.000000
0.117651 0.056623 0.292217 0.000000 0.000000 1.000000 1.000000 1.000000
0.151460 -0.056623 0.292217 0.000000 0.000000 1.000000 1.000000 0.000000
0.151460 0.056623 0.292217 0.000000 0.000000 1.000000 1.000000 1.000000
0.185269 -0.056623 0.292217 0.000000 0.000000 1.000000 1.000000 0.000000
0.185269 0.056623 0.292217 0.000000 0.000000 1.000000 1.000000 1.000000
0.219078 -0.056623 0.292217 0.000000 0.000000 1.000000 1.000000 0.000000
0.219078 0.056623 0.292217 0.000000 0.000000 1.000000 1.000000 1.000000
0.252887 -0.056623 0.292217 0.000000 -0.000000 1.000000 1.000000 0.000000
0.252887 0.056623 0.292217 0.000000 0.000000 1.000000 1.000000 1.000000
0.117651 0.056623 0.292217 0.000000 1.000000 0.000410 0.000000 0.000000
0.083889 0.056671 0.175843 0.001412 0.999999 -0.000000 0.000000 0.000000
0.117651 0.056623 0.292217 0.001412 0.999999 -0.000000 0.000000 0.000000
0.117651 0.056623 0.196056 0.001412 0.999999 -0.000000 0.000000 0.000000
0.117651 0.056623 0.196056 0.000000 1.000000 0.000000 0.000000 0.000000
0.117651 0.056623 0.292217 0.000000 1.000000 0.000000 0.000000 0.000000
0.151460 0.056623 0.292217 0.000000 1.000000 0.000000 0.000000 0.000000
0.151460 0.056623 0.213566 -0.000000 1.000000 0.000000 0.000000 0.000000
0.185269 0.056623 0.292217 0.000000 1.000000 0.000000 0.000000 0.000000
0.185269 0.056623 0.227250 -0.000000 1.000000 0.000000 0.000000 0.000000
0.219078 0.056623 0.292217 0.000000 1.000000 0.000000 0.000000 0.000000
0.219078 0.056623 0.237025 -0.000000 1.000000 0.000000 0.000000 0.000000
0.252887 0.056623 0.292217 0.000000 1.000000 0.000000 0.000000 0.000000
0.252887 0.056623 0.242890 -0.000000 1.000000 0.000000 0.000000 0.000000
3 0 1 2
3 0 2 3
3 4 5 6
3 4 6 7
3 8 9 10
3 8 10 11
3 12 13 14
3 12 14 15
3 16 17 18
3 16 18 19
3 20 21 22
3 20 22 23
3 24 25 26
3 24 26 27
3 28 29 30
3 28 30 31
3 29 4 7
3 29 7 30
3 5 28 31
3 5 31 6
3 32 33 34
3 32 34 35
3 36 37 38
3 36 38 39
3 40 41 42
3 43 44 45
3 46 47 48
3 49 50 51
3 52 53 54
3 55 56 57
3 58 59 60
3 61 62 63
3 64 65 66
3 67 68 69
3 70 71 72
3 70 72 73
3 74 75 76
3 74 76 77
3 78 79 80
3 81 82 83
3 84 85 86
3 87 88 89
3 90 91 92
3 93 94 95
3 96 97 98
3 99 100 101
3 102 103 104
3 105 106 107
3 108 109 110
3 111 112 113
3 114 115 116
3 114 116 117
3 118 119 120
3 121 122 123
3 124 125 126
3 127 128 129
3 130 131 132
3 133 134 135
3 136 137 138
3 136 138 139
3 140 141 142
3 140 142 143
3 144 145 146
3 147 148 149
3 150 151 152
3 153 154 155
3 156 157 158
3 159 160 161
3 162 163 164
3 165 166 167
3 168 169 170
3 171 172 173
3 174 175 176
3 174 176 177
3 177 176 178
3 177 178 179
3 180 181 182
3 183 184 185
3 186 187 188
3 189 190 191
3 192 193 194
3 195 196 197
3 198 199 200
3 198 200 201
3 202 203 204
3 202 204 205
3 206 207 208
3 206 208 209
3 210 211 212
3 210 212 213
3 214 215 216
3 217 218 219
3 220 221 222
3 223 224 225
3 226 227 228
3 229 230 231
3 232 233 234
3 235 236 237
3 238 239 240
3 238 240 241
3 242 243 244
3 245 246 247
3 248 249 250
3 251 252 253
3 254 255 256
3 257 258 259
3 260 261 262
3 260 262 263
3 264 265 266
3 264 266 267
3 268 269 270
3 271 272 273
3 274 275 276
3 274 276 277
3 278 279 280
3 278 280 281
3 282 283 284
3 285 286 287
3 288 289 290
3 291 292 293
3 294 295 296
3 294 296 297
3 298 299 300
3 298 300 301
3 302 303 304
3 302 304 305
3 306 307 308
3 306 308 309
3 310 311 312
3 310 312 313
3 314 315 316
3 317 318 319
3 320 321 322
3 323 324 325
3 326 327 328
3 329 330 331
3 332 333 334
3 335 336 337
3 311 338 339
3 311 339 312
3 338 340 341
3 338 341 339
3 342 310 313
3 342 313 343
3 344 345 346
3 344 346 347
3 348 349 350
3 348 350 351
3 352 353 354
3 352 354 355
3 356 357 358
3 356 358 359
3 360 361 362
3 360 362 363
3 364 365 366
3 336 367 368
3 368 367 369
3 368 369 370
3 370 369 371
3 370 371 372
3 372 371 373
3 372 373 374
3 374 373 375
3 374 375 376
3 34 33 377
3 34 377 378
3 378 377 379
3 378 379 380
3 380 379 381
3 380 381 382
3 382 381 383
3 382 383 384
3 384 383 385
3 384 385 386
3 329 331 387
3 388 389 390
3 391 392 393
3 391 393 394
3 394 393 395
3 394 395 396
3 396 395 397
3 396 397 398
3 398 397 399
3 398 399 400
